{"title":"Inception.CAM.V2.XVID.FEEL-FREE","uid":5719696,"size":1425816482,"categoryP":"video","categoryS":"movies","magnet":"?xt=urn:btih:430512e421c70add4f03ea7bfee94ccb51f6a085&amp;dn=Inception.CAM.V2.XVID.FEEL-FREE&amp;tr=udp%3A%2F%2Ftracker.openbittorrent.com%3A80&amp;tr=udp%3A%2F%2Fopen.demonii.com%3A1337&amp;tr=udp%3A%2F%2Ftracker.coppersurfer.tk%3A6969&amp;tr=udp%3A%2F%2Fexodus.desync.com%3A6969","seeders":0,"leechers":1,"uploader":"hiest","files":11,"time":1280242035,"description":"Genre:Drama | Mystery | Sci-Fi | Thriller\nLanguage:English\nIMDb:http://www.imdb.com/title/tt1375666/\nSource video:ELEKTRI4KA.Thanks\nSource audio:IMAGiNE.Thanks\nSample:Yes\n.........................................\nGeneral\nComplete name : Inception.CAM.V2.XVID.FEEL-FREE\nFormat : AVI\nFormat/Info : Audio Video Interleave\nFormat profile : OpenDML\nFile size : 1.31 GiB\n.........................................\nVideo\nFormat : xvid\nCodec ID : xvid\nBit rate : 450 Kbps\nWidth : 644 pixels\nHeight : 302 pixels\nDisplay aspect ratio : 2.2:1\nFrame rate : 25.000 fps\nResolution : 24 bits\nBits/(Pixel*Frame) : 0.093\nStream size : 1.17 GiB (89%)\n.........................................\nAudio\nID : 1\nFormat : MPEG Audio\nFormat version : Version 1\nFormat profile : Layer 3\nFormat settings, Mode : Joint stereo / MS Stereo\nCodec ID : 55\nCodec ID/Hint : MP3\nDuration : 2h 19mn\nBit rate mode : Constant\nBit rate : 128 Kbps\nChannel(s) : 2 channels\nSampling rate : 48.0 KHz\nResolution : 16 bits\nStream size : 128 MiB (10%)\nAlignment : Aligned on interleaves\nInterleave, duration : 24 ms (0.60 video frame)\nInterleave, preload duration : 24 ms\nWriting library : LAME3.97\n.........................................\nPlot:\nIn a world where technology exists to enter the human mind through dream invasion, a highly skilled thief is given a final chance at redemption which involves executing his toughest job till date, Inception\n...................................................","torrent":{"xt":"urn:btih:430512e421c70add4f03ea7bfee94ccb51f6a085","amp;dn":"Inception.CAM.V2.XVID.FEEL-FREE","amp;tr":["udp%3A%2F%2Ftracker.openbittorrent.com%3A80","udp%3A%2F%2Fopen.demonii.com%3A1337","udp%3A%2F%2Ftracker.coppersurfer.tk%3A6969","udp%3A%2F%2Fexodus.desync.com%3A6969"],"infoHash":"430512e421c70add4f03ea7bfee94ccb51f6a085","infoHashBuffer":{"type":"Buffer","data":[67,5,18,228,33,199,10,221,79,3,234,123,254,233,76,203,81,246,160,133]},"announce":[],"urlList":[]}}